<svg id="icon-40-category" xmlns="http://www.w3.org/2000/svg" width="40" height="40" viewBox="0 0 40 40">
  <g id="Grupo_2240" data-name="Grupo 2240" transform="translate(-10 -2353)">
    <g id="Rectángulo_16991" data-name="Rectángulo 16991" transform="translate(10 2353)" fill="rgba(164,192,199,0)" stroke="#00aad5" stroke-width="1">
      <rect width="40" height="40" rx="10" stroke="none"/>
      <rect x="0.5" y="0.5" width="39" height="39" rx="9.5" fill="none"/>
    </g>
  </g>
  <g id="Grupo_2257" data-name="Grupo 2257" transform="translate(8 8)">
    <path id="Trazado_1402" data-name="Trazado 1402" d="M3.5,6.762h-2A1.467,1.467,0,0,1,0,5.333v-1.9A1.467,1.467,0,0,1,1.5,2h2A1.467,1.467,0,0,1,5,3.429v1.9A1.467,1.467,0,0,1,3.5,6.762Zm-2-3.81a.49.49,0,0,0-.5.476v1.9a.49.49,0,0,0,.5.476h2A.49.49,0,0,0,4,5.333v-1.9a.49.49,0,0,0-.5-.476Zm2,11.429h-2A1.467,1.467,0,0,1,0,12.952v-1.9A1.467,1.467,0,0,1,1.5,9.619h2A1.467,1.467,0,0,1,5,11.048v1.9A1.467,1.467,0,0,1,3.5,14.381Zm-2-3.81a.49.49,0,0,0-.5.476v1.9a.49.49,0,0,0,.5.476h2a.49.49,0,0,0,.5-.476v-1.9a.49.49,0,0,0-.5-.476ZM3.5,22h-2A1.467,1.467,0,0,1,0,20.571v-1.9a1.467,1.467,0,0,1,1.5-1.429h2A1.467,1.467,0,0,1,5,18.667v1.9A1.467,1.467,0,0,1,3.5,22Zm-2-3.81a.49.49,0,0,0-.5.476v1.9a.49.49,0,0,0,.5.476h2a.49.49,0,0,0,.5-.476v-1.9a.49.49,0,0,0-.5-.476Zm22-13.333H7.5a.477.477,0,1,1,0-.952h16a.477.477,0,1,1,0,.952Zm0,7.619H7.5a.477.477,0,1,1,0-.952h16a.477.477,0,1,1,0,.952Zm0,7.619H7.5a.477.477,0,1,1,0-.952h16a.477.477,0,1,1,0,.952Z" fill="#00aad5"/>
  </g>
</svg>
