<svg id="icon-40-rating" xmlns="http://www.w3.org/2000/svg" width="40" height="40" viewBox="0 0 40 40">
  <g id="Grupo_2245" data-name="Grupo 2245" transform="translate(-10 -2353)">
    <g id="Rectángulo_16991" data-name="Rectángulo 16991" transform="translate(10 2353)" fill="rgba(164,192,199,0)" stroke="#00aad5" stroke-width="1">
      <rect width="40" height="40" rx="10" stroke="none"/>
      <rect x="0.5" y="0.5" width="39" height="39" rx="9.5" fill="none"/>
    </g>
  </g>
  <g id="icon-certificado" transform="translate(10 10)">
    <path id="Trazado_1380" data-name="Trazado 1380" d="M17.917,20H2.083A2.086,2.086,0,0,1,0,17.917V2.083A2.086,2.086,0,0,1,2.083,0H17.917A2.086,2.086,0,0,1,20,2.083V17.917A2.086,2.086,0,0,1,17.917,20ZM2.083.833a1.252,1.252,0,0,0-1.25,1.25V17.917a1.252,1.252,0,0,0,1.25,1.25H17.917a1.252,1.252,0,0,0,1.25-1.25V2.083a1.252,1.252,0,0,0-1.25-1.25Z" fill="#00aad5"/>
    <path id="Trazado_1381" data-name="Trazado 1381" d="M11.667,7.5a1.25,1.25,0,1,1,1.25-1.25A1.252,1.252,0,0,1,11.667,7.5Zm0-1.667a.417.417,0,1,0,.417.417A.417.417,0,0,0,11.667,5.833Zm0,10a.417.417,0,0,1-.417-.417V9.167h-.833a.417.417,0,1,1,0-.833h1.25a.417.417,0,0,1,.417.417v6.667A.417.417,0,0,1,11.667,15.833Z" transform="translate(-1.667 -0.833)" fill="#00aad5"/>
    <path id="Trazado_1382" data-name="Trazado 1382" d="M13.25,17.833H9.917a.417.417,0,0,1,0-.833H13.25a.417.417,0,1,1,0,.833Z" transform="translate(-1.583 -2.833)" fill="#00aad5"/>
  </g>
</svg>
