<svg id="icon-40-size" xmlns="http://www.w3.org/2000/svg" width="40" height="40" viewBox="0 0 40 40">
  <g id="Grupo_2247" data-name="Grupo 2247" transform="translate(-10 -2353)">
    <g id="Rectángulo_16991" data-name="Rectángulo 16991" transform="translate(10 2353)" fill="rgba(164,192,199,0)" stroke="#00aad5" stroke-width="1">
      <rect width="40" height="40" rx="10" stroke="none"/>
      <rect x="0.5" y="0.5" width="39" height="39" rx="9.5" fill="none"/>
    </g>
  </g>
  <g id="Grupo_2254" data-name="Grupo 2254" transform="translate(10 10)">
    <path id="Trazado_1392" data-name="Trazado 1392" d="M16.583,20H4.083A2.086,2.086,0,0,1,2,17.917V2.083A2.086,2.086,0,0,1,4.083,0h9.8a2.083,2.083,0,0,1,1.389.531l2.7,2.412A2.088,2.088,0,0,1,18.667,4.5V17.917A2.086,2.086,0,0,1,16.583,20ZM4.083.833a1.252,1.252,0,0,0-1.25,1.25V17.917a1.252,1.252,0,0,0,1.25,1.25h12.5a1.252,1.252,0,0,0,1.25-1.25V4.5a1.253,1.253,0,0,0-.417-.933L14.722,1.153a1.248,1.248,0,0,0-.833-.319Z" fill="#00aad5"/>
    <path id="Trazado_1393" data-name="Trazado 1393" d="M5.417,5.5A.417.417,0,0,1,5,5.083V3.417a.417.417,0,0,1,.833,0V5.083A.417.417,0,0,1,5.417,5.5Zm2.5,0A.417.417,0,0,1,7.5,5.083V3.417a.417.417,0,1,1,.833,0V5.083A.417.417,0,0,1,7.917,5.5Zm2.5,0A.417.417,0,0,1,10,5.083V3.417a.417.417,0,0,1,.833,0V5.083A.417.417,0,0,1,10.417,5.5Zm2.5,0a.417.417,0,0,1-.417-.417V3.417a.417.417,0,0,1,.833,0V5.083A.417.417,0,0,1,12.917,5.5ZM16.25,18H5.417A.417.417,0,0,1,5,17.583V10.917a.417.417,0,0,1,.417-.417H16.25a.417.417,0,0,1,.417.417v6.667A.417.417,0,0,1,16.25,18ZM5.833,17.167h10V11.333h-10Z" transform="translate(-0.5 -0.5)" fill="#00aad5"/>
  </g>
</svg>
