<svg id="icon-40-package" xmlns="http://www.w3.org/2000/svg" width="40" height="40" viewBox="0 0 40 40">
  <g id="Grupo_2237" data-name="Grupo 2237" transform="translate(-10 -2353)">
    <g id="Rectángulo_16991" data-name="Rectángulo 16991" transform="translate(10 2353)" fill="rgba(164,192,199,0)" stroke="#00aad5" stroke-width="1">
      <rect width="40" height="40" rx="10" stroke="none"/>
      <rect x="0.5" y="0.5" width="39" height="39" rx="9.5" fill="none"/>
    </g>
  </g>
  <g id="icon-certificado" transform="translate(10 10)">
    <path id="Trazado_1383" data-name="Trazado 1383" d="M18.167,22A.413.413,0,0,1,18,21.965c-.163-.071-4-1.787-4-5.293V13.726a.418.418,0,0,1,.279-.393l3.75-1.309a.42.42,0,0,1,.275,0l3.75,1.309a.418.418,0,0,1,.279.393v2.947c0,3.507-3.837,5.222-4,5.293a.413.413,0,0,1-.167.035Zm-3.333-7.979v2.651c0,2.588,2.636,4.1,3.333,4.448.7-.354,3.334-1.868,3.334-4.448V14.022l-3.333-1.163Z" transform="translate(-2.333 -2)" fill="#00aad5"/>
    <path id="Trazado_1384" data-name="Trazado 1384" d="M17.079,17.266h-.023a.415.415,0,0,1-.307-.161l-1.364-1.763a.417.417,0,1,1,.659-.511l1.069,1.383,2.052-2.122a.417.417,0,1,1,.6.579l-2.386,2.468a.419.419,0,0,1-.3.128Zm.758-7.308a.417.417,0,0,1-.417-.417v-3.7L10.111,9.5a.417.417,0,0,1-.373-.745L17.65,4.794a.417.417,0,0,1,.6.373V9.542A.417.417,0,0,1,17.837,9.958Z" transform="translate(-1.586 -0.792)" fill="#00aad5"/>
    <path id="Trazado_1385" data-name="Trazado 1385" d="M8.329,17.459a.411.411,0,0,1-.194-.048L.223,13.244A.416.416,0,0,1,0,12.875V5.167a.417.417,0,0,1,.6-.373L8.514,8.753a.417.417,0,0,1,.23.373v7.917a.418.418,0,0,1-.416.417Zm-7.5-4.835,7.078,3.728V9.383L.833,5.841Z" transform="translate(0 -0.792)" fill="#00aad5"/>
    <path id="Trazado_1386" data-name="Trazado 1386" d="M16.25,4.792a.42.42,0,0,1-.187-.044L8.328.883.6,4.748A.417.417,0,1,1,.23,4L8.142.044a.418.418,0,0,1,.373,0L16.436,4a.417.417,0,0,1-.186.789Z" transform="translate(0 0)" fill="#00aad5"/>
    <path id="Trazado_1387" data-name="Trazado 1387" d="M4.96,10.161a.417.417,0,0,1-.417-.417v-3.1a.417.417,0,0,1,.23-.373l7.912-3.958a.417.417,0,1,1,.373.746L5.376,6.9V9.745A.417.417,0,0,1,4.96,10.161Zm4.126,6.884a.417.417,0,0,1-.2-.785l1.672-.887a.417.417,0,0,1,.391.737L9.281,17a.428.428,0,0,1-.2.048Z" transform="translate(-0.757 -0.378)" fill="#00aad5"/>
  </g>
</svg>
