<svg id="icon-12-star" xmlns="http://www.w3.org/2000/svg" width="12" height="12" viewBox="0 0 12 12">
  <rect id="Rectángulo_17279" data-name="Rectángulo 17279" width="12" height="12" fill="#e1ebed" opacity="0"/>
  <path id="star" d="M11.99,5.885a.218.218,0,0,0-.174-.154L7.93,5.139l-1.738-3.7a.21.21,0,0,0-.385,0L4.07,5.139.184,5.732a.218.218,0,0,0-.174.154.233.233,0,0,0,.054.231L2.877,8.993l-.664,4.062a.231.231,0,0,0,.085.22.2.2,0,0,0,.226.017L6,11.374l3.475,1.917a.207.207,0,0,0,.226-.017.23.23,0,0,0,.085-.22L9.124,8.993l2.812-2.877A.233.233,0,0,0,11.99,5.885Z" transform="translate(0 -1.318)" fill="#a4c0c7"/>
</svg>
