<svg id="icon-40-language" xmlns="http://www.w3.org/2000/svg" width="40" height="40" viewBox="0 0 40 40">
  <g id="Grupo_2241" data-name="Grupo 2241" transform="translate(-10 -2353)">
    <g id="Rectángulo_16991" data-name="Rectángulo 16991" transform="translate(10 2353)" fill="rgba(164,192,199,0)" stroke="#00aad5" stroke-width="1">
      <rect width="40" height="40" rx="10" stroke="none"/>
      <rect x="0.5" y="0.5" width="39" height="39" rx="9.5" fill="none"/>
    </g>
  </g>
  <g id="Grupo_2256" data-name="Grupo 2256" transform="translate(10 10)">
    <path id="Trazado_1398" data-name="Trazado 1398" d="M10,0A10,10,0,1,0,20,10,10.011,10.011,0,0,0,10,0Zm0,19.13A9.13,9.13,0,1,1,19.13,10,9.14,9.14,0,0,1,10,19.13Z" transform="translate(0 0)" fill="#00aad5"/>
    <path id="Trazado_1399" data-name="Trazado 1399" d="M112.318,0c-3.17,0-5.652,4.392-5.652,10s2.483,10,5.652,10,5.652-4.392,5.652-10S115.488,0,112.318,0Zm0,19.13c-2.592,0-4.783-4.182-4.783-9.13s2.19-9.13,4.783-9.13S117.1,5.051,117.1,10,114.91,19.13,112.318,19.13Z" transform="translate(-102.318 0)" fill="#00aad5"/>
    <path id="Trazado_1400" data-name="Trazado 1400" d="M235.1,0a.435.435,0,0,0-.435.435v19.13a.435.435,0,1,0,.87,0V.435A.435.435,0,0,0,235.1,0Z" transform="translate(-225.101 0)" fill="#00aad5"/>
    <path id="Trazado_1401" data-name="Trazado 1401" d="M19.565,111.884H.435a.435.435,0,1,0,0,.87h19.13a.435.435,0,1,0,0-.87Zm-1.739-5.217H2.174a.435.435,0,1,0,0,.87H17.826a.435.435,0,1,0,0-.87Zm0,10.435H2.174a.435.435,0,1,0,0,.87H17.826a.435.435,0,1,0,0-.87Z" transform="translate(0 -102.319)" fill="#00aad5"/>
  </g>
</svg>
