
<svg id="icon-20-android" xmlns="http://www.w3.org/2000/svg" width="20" height="20" viewBox="0 0 20 20">
  <rect id="Rectángulo_17260" data-name="Rectángulo 17260" width="20" height="20" fill="#e1ebed" opacity="0"/>
  <g id="android-logo_2_" data-name="android-logo (2)" transform="translate(1.708)">
    <g id="Grupo_99" data-name="Grupo 99">
      <g id="Grupo_98" data-name="Grupo 98" transform="translate(0 0)">
        <path id="Trazado_87" data-name="Trazado 87" d="M38.377,164.715h-.051a1.2,1.2,0,0,0-1.192,1.192V171.1a1.2,1.2,0,0,0,1.192,1.193h.052a1.2,1.2,0,0,0,1.192-1.193v-5.191A1.2,1.2,0,0,0,38.377,164.715Z" transform="translate(-37.134 -158.193)" fill="#00aad5"/>
        <path id="Trazado_88" data-name="Trazado 88" d="M113.085,177.721a1.1,1.1,0,0,0,1.1,1.094h1.171v2.8a1.2,1.2,0,0,0,1.192,1.194h.051a1.2,1.2,0,0,0,1.194-1.194v-2.8h1.636v2.8a1.2,1.2,0,0,0,1.194,1.194h.05a1.2,1.2,0,0,0,1.193-1.194v-2.8h1.172a1.1,1.1,0,0,0,1.095-1.094v-8.2H113.085Z" transform="translate(-110.078 -162.813)" fill="#00aad5"/>
        <path id="Trazado_89" data-name="Trazado 89" d="M120.467,1.742,121.4.306a.2.2,0,0,0-.058-.273.2.2,0,0,0-.273.058L120.1,1.576a6.376,6.376,0,0,0-4.77,0L114.369.091a.2.2,0,0,0-.333.215l.931,1.436a4.708,4.708,0,0,0-2.81,4.151c0,.109.007.217.016.324h11.088c.009-.107.015-.214.015-.324A4.71,4.71,0,0,0,120.467,1.742Zm-5.321,2.571a.533.533,0,1,1,.534-.533A.533.533,0,0,1,115.146,4.312Zm5.14,0a.532.532,0,1,1,.533-.533A.533.533,0,0,1,120.287,4.312Z" transform="translate(-109.187 0)" fill="#00aad5"/>
        <path id="Trazado_90" data-name="Trazado 90" d="M407.713,164.715h-.049a1.2,1.2,0,0,0-1.194,1.192V171.1a1.2,1.2,0,0,0,1.194,1.193h.05a1.2,1.2,0,0,0,1.192-1.193v-5.191A1.2,1.2,0,0,0,407.713,164.715Z" transform="translate(-391.846 -158.193)" fill="#00aad5"/>
      </g>
    </g>
  </g>
</svg>

