<svg id="icon-40-date" xmlns="http://www.w3.org/2000/svg" width="40" height="40" viewBox="0 0 40 40">
  <g id="Grupo_2244" data-name="Grupo 2244" transform="translate(-10 -2353)">
    <g id="Rectángulo_16991" data-name="Rectángulo 16991" transform="translate(10 2353)" fill="rgba(164,192,199,0)" stroke="#00aad5" stroke-width="1">
      <rect width="40" height="40" rx="10" stroke="none"/>
      <rect x="0.5" y="0.5" width="39" height="39" rx="9.5" fill="none"/>
    </g>
  </g>
  <g id="Grupo_2255" data-name="Grupo 2255" transform="translate(10 10)">
    <path id="Trazado_1394" data-name="Trazado 1394" d="M9.917,18.5h-2.5a.417.417,0,1,1,0-.833h2.5a.417.417,0,0,0,.417-.417v-5a.417.417,0,0,0-.417-.417h-2.5a.417.417,0,1,1,0-.833h2.5a1.252,1.252,0,0,1,1.25,1.25v5A1.252,1.252,0,0,1,9.917,18.5Z" transform="translate(-1.167 -1.833)" fill="#00aad5"/>
    <path id="Trazado_1395" data-name="Trazado 1395" d="M10.75,15.167H7.417a.417.417,0,1,1,0-.833H10.75a.417.417,0,1,1,0,.833ZM14.917,18.5a.417.417,0,0,1-.417-.417v-6.25h-.417a.417.417,0,0,1,0-.833h.833a.417.417,0,0,1,.417.417v6.667A.417.417,0,0,1,14.917,18.5Z" transform="translate(-1.167 -1.833)" fill="#00aad5"/>
    <path id="Trazado_1396" data-name="Trazado 1396" d="M17.917,20.333H2.083A2.086,2.086,0,0,1,0,18.25V4.083A2.086,2.086,0,0,1,2.083,2H17.917A2.086,2.086,0,0,1,20,4.083V18.25A2.086,2.086,0,0,1,17.917,20.333ZM2.083,2.833a1.252,1.252,0,0,0-1.25,1.25V18.25a1.252,1.252,0,0,0,1.25,1.25H17.917a1.252,1.252,0,0,0,1.25-1.25V4.083a1.252,1.252,0,0,0-1.25-1.25Z" transform="translate(0 -0.333)" fill="#00aad5"/>
    <path id="Trazado_1397" data-name="Trazado 1397" d="M19.583,6.667H.417a.417.417,0,0,1,0-.833H19.583a.417.417,0,1,1,0,.833Zm-15-2.5a.417.417,0,0,1-.417-.417V.417A.417.417,0,0,1,5,.417V3.75A.417.417,0,0,1,4.583,4.167Zm10.833,0A.417.417,0,0,1,15,3.75V.417a.417.417,0,1,1,.833,0V3.75A.417.417,0,0,1,15.417,4.167Z" fill="#00aad5"/>
  </g>
</svg>
