<svg id="icon-40-system" xmlns="http://www.w3.org/2000/svg" width="40" height="40" viewBox="0 0 40 40">
  <g id="Grupo_2239" data-name="Grupo 2239" transform="translate(-10 -2353)">
    <g id="Rectángulo_16991" data-name="Rectángulo 16991" transform="translate(10 2353)" fill="rgba(164,192,199,0)" stroke="#00aad5" stroke-width="1">
      <rect width="40" height="40" rx="10" stroke="none"/>
      <rect x="0.5" y="0.5" width="39" height="39" rx="9.5" fill="none"/>
    </g>
  </g>
  <g id="icon-certificado" transform="translate(8 8)">
    <path id="Trazado_1369" data-name="Trazado 1369" d="M17.5,24A6.5,6.5,0,1,1,24,17.5,6.508,6.508,0,0,1,17.5,24Zm0-12A5.5,5.5,0,1,0,23,17.5,5.506,5.506,0,0,0,17.5,12Z" fill="#00aad5"/>
    <path id="Trazado_1370" data-name="Trazado 1370" d="M17.5,21a.5.5,0,0,1-.5-.5v-4a.5.5,0,0,1,1,0v4A.5.5,0,0,1,17.5,21Z" fill="#00aad5"/>
    <circle id="Elipse_1" data-name="Elipse 1" cx="0.5" cy="0.5" r="0.5" transform="translate(17 14)" fill="#00aad5"/>
    <path id="Trazado_1371" data-name="Trazado 1371" d="M8.5,19h-3A2.5,2.5,0,0,1,3,16.5V5.5A2.5,2.5,0,0,1,5.5,3h11A2.5,2.5,0,0,1,19,5.5v3a.5.5,0,0,1-1,0v-3A1.5,1.5,0,0,0,16.5,4H5.5A1.5,1.5,0,0,0,4,5.5v11A1.5,1.5,0,0,0,5.5,18h3a.5.5,0,0,1,0,1Z" fill="#00aad5"/>
    <path id="Trazado_1372" data-name="Trazado 1372" d="M8.5,16h-1A1.5,1.5,0,0,1,6,14.5v-7A1.5,1.5,0,0,1,7.5,6h3.586a1.494,1.494,0,0,1,1.061.439l2.707,2.707a.5.5,0,1,1-.707.707L11.44,7.146A.512.512,0,0,0,11.086,7H7.5a.5.5,0,0,0-.5.5v7a.5.5,0,0,0,.5.5h1a.5.5,0,0,1,0,1Zm-2,6a.5.5,0,0,1-.5-.5v-3a.5.5,0,0,1,1,0v3A.5.5,0,0,1,6.5,22ZM11,4a.5.5,0,0,1-.5-.5V.5a.5.5,0,1,1,1,0v3A.5.5,0,0,1,11,4ZM6.5,4A.5.5,0,0,1,6,3.5V.5a.5.5,0,1,1,1,0v3A.5.5,0,0,1,6.5,4Zm9,0a.5.5,0,0,1-.5-.5V.5a.5.5,0,1,1,1,0v3A.5.5,0,0,1,15.5,4Zm-12,7.5H.5a.5.5,0,0,1,0-1h3a.5.5,0,0,1,0,1ZM3.5,7H.5a.5.5,0,0,1,0-1h3a.5.5,0,0,1,0,1Zm0,9H.5a.5.5,0,0,1,0-1h3a.5.5,0,0,1,0,1Zm18-9h-3a.5.5,0,0,1,0-1h3a.5.5,0,0,1,0,1Z" fill="#00aad5"/>
  </g>
</svg>
